ply
format ascii 1.0
element vertex 528
property float x
property float y
property float z
element face 1052
property list uchar int vertex_indices
property uchar red
property uchar green
property uchar blue
end_header
-9 -6 -3
-10 -5 -3
-9 -5 -4
-9 -6 -1
-10 -5 -1
-9 -6 1
-10 -5 1
-9 -6 3
-10 -5 3
-9 -5 4
-9 -4 -5
-10 -3 -5
-9 -3 -6
-10 -3 -3
-10 -3 -1
-10 -3 1
-10 -3 3
-10 -3 5
-9 -4 5
-9 -3 6
-10 -1 -5
-9 -1 -6
-10 -1 -3
-10 -1 -1
-10 -1 1
-10 -1 3
-10 -1 5
-9 -1 6
-10 1 -5
-9 1 -6
-10 1 -3
-10 1 -1
-10 1 1
-10 1 3
-10 1 5
-9 1 6
-10 3 -5
-9 3 -6
-10 3 -3
-10 3 -1
-10 3 1
-10 3 3
-10 3 5
-9 3 6
-9 4 -5
-10 5 -3
-9 5 -4
-10 5 -1
-10 5 1
-10 5 3
-9 4 5
-9 5 4
-9 6 -3
-9 6 -1
-9 6 1
-9 6 3
-7 -8 -3
-8 -7 -3
-7 -7 -4
-7 -8 -1
-8 -7 -1
-7 -8 1
-8 -7 1
-7 -8 3
-8 -7 3
-7 -7 4
-7 -6 -5
-8 -5 -5
-7 -5 -6
-8 -5 5
-7 -6 5
-7 -5 6
-7 -4 -7
-8 -3 -7
-7 -3 -8
-8 -3 7
-7 -4 7
-7 -3 8
-8 -1 -7
-7 -1 -8
-8 -1 7
-7 -1 8
-8 1 -7
-7 1 -8
-8 1 7
-7 1 8
-8 3 -7
-7 3 -8
-8 3 7
-7 3 8
-7 4 -7
-7 5 -6
-8 5 -5
-8 5 5
-7 5 6
-7 4 7
-7 6 -5
-7 7 -4
-8 7 -3
-8 7 -1
-8 7 1
-8 7 3
-7 7 4
-7 6 5
-7 8 -3
-7 8 -1
-7 8 1
-7 8 3
-5 -10 -3
-6 -9 -3
-5 -9 -4
-5 -10 -1
-6 -9 -1
-5 -10 1
-6 -9 1
-5 -10 3
-6 -9 3
-5 -9 4
-5 -8 -5
-6 -7 -5
-5 -7 -6
-6 -7 5
-5 -8 5
-5 -7 6
-5 -6 -7
-6 -5 -7
-5 -5 -8
-6 -5 7
-5 -6 7
-5 -5 8
-5 -4 -9
-6 -3 -9
-5 -3 -10
-6 -3 9
-5 -4 9
-5 -3 10
-6 -1 -9
-5 -1 -10
-6 -1 9
-5 -1 10
-6 1 -9
-5 1 -10
-6 1 9
-5 1 10
-6 3 -9
-5 3 -10
-6 3 9
-5 3 10
-5 4 -9
-5 5 -8
-6 5 -7
-6 5 7
-5 5 8
-5 4 9
-5 6 -7
-5 7 -6
-6 7 -5
-6 7 5
-5 7 6
-5 6 7
-5 8 -5
-5 9 -4
-6 9 -3
-6 9 -1
-6 9 1
-6 9 3
-5 9 4
-5 8 5
-5 10 -3
-5 10 -1
-5 10 1
-5 10 3
-3 -10 -5
-4 -9 -5
-3 -9 -6
-3 -10 -3
-3 -10 -1
-3 -10 1
-3 -10 3
-3 -10 5
-4 -9 5
-3 -9 6
-3 -8 -7
-4 -7 -7
-3 -7 -8
-4 -7 7
-3 -8 7
-3 -7 8
-3 -6 -9
-4 -5 -9
-3 -5 -10
-4 -5 9
-3 -6 9
-3 -5 10
-3 -3 -10
-3 -3 10
-3 -1 -10
-3 -1 10
-3 1 -10
-3 1 10
-3 3 -10
-3 3 10
-3 5 -10
-4 5 -9
-4 5 9
-3 5 10
-3 6 -9
-3 7 -8
-4 7 -7
-4 7 7
-3 7 8
-3 6 9
-3 8 -7
-3 9 -6
-4 9 -5
-4 9 5
-3 9 6
-3 8 7
-3 10 -5
-3 10 -3
-3 10 -1
-3 10 1
-3 10 3
-3 10 5
-1 -10 -5
-1 -9 -6
-1 -10 -3
-1 -10 -1
-1 -10 1
-1 -10 3
-1 -10 5
-1 -9 6
-1 -8 -7
-1 -7 -8
-1 -8 7
-1 -7 8
-1 -6 -9
-1 -5 -10
-1 -6 9
-1 -5 10
-1 -3 -10
-1 -3 10
-1 -1 -10
-1 -1 10
-1 1 -10
-1 1 10
-1 3 -10
-1 3 10
-1 5 -10
-1 5 10
-1 6 -9
-1 7 -8
-1 6 9
-1 7 8
-1 8 -7
-1 9 -6
-1 8 7
-1 9 6
-1 10 -5
-1 10 -3
-1 10 -1
-1 10 1
-1 10 3
-1 10 5
1 -10 -5
1 -9 -6
1 -10 -3
1 -10 -1
1 -10 1
1 -10 3
1 -10 5
1 -9 6
1 -8 -7
1 -7 -8
1 -8 7
1 -7 8
1 -6 -9
1 -5 -10
1 -6 9
1 -5 10
1 -3 -10
1 -3 10
1 -1 -10
1 -1 10
1 1 -10
1 1 10
1 3 -10
1 3 10
1 5 -10
1 5 10
1 6 -9
1 7 -8
1 6 9
1 7 8
1 8 -7
1 9 -6
1 8 7
1 9 6
1 10 -5
1 10 -3
1 10 -1
1 10 1
1 10 3
1 10 5
3 -10 -5
3 -9 -6
3 -10 -3
3 -10 -1
3 -10 1
3 -10 3
3 -10 5
3 -9 6
3 -8 -7
3 -7 -8
3 -8 7
3 -7 8
3 -6 -9
3 -5 -10
3 -6 9
3 -5 10
3 -3 -10
3 -3 10
3 -1 -10
3 -1 10
3 1 -10
3 1 10
3 3 -10
3 3 10
3 5 -10
3 5 10
3 6 -9
3 7 -8
3 6 9
3 7 8
3 8 -7
3 9 -6
3 8 7
3 9 6
3 10 -5
3 10 -3
3 10 -1
3 10 1
3 10 3
3 10 5
4 -9 -5
5 -10 -3
5 -9 -4
5 -10 -1
5 -10 1
5 -10 3
5 -9 4
4 -9 5
4 -7 -7
5 -7 -6
5 -8 -5
5 -8 5
5 -7 6
4 -7 7
4 -5 -9
5 -5 -8
5 -6 -7
5 -6 7
5 -5 8
4 -5 9
5 -3 -10
5 -4 -9
5 -4 9
5 -3 10
5 -1 -10
5 -1 10
5 1 -10
5 1 10
5 3 -10
5 3 10
4 5 -9
5 4 -9
5 5 -8
5 4 9
5 5 8
4 5 9
4 7 -7
5 6 -7
5 7 -6
5 6 7
5 7 6
4 7 7
4 9 -5
5 8 -5
5 9 -4
5 8 5
5 9 4
4 9 5
5 10 -3
5 10 -1
5 10 1
5 10 3
6 -9 -3
6 -9 -1
6 -9 1
6 -9 3
6 -7 -5
7 -7 -4
7 -8 -3
7 -8 -1
7 -8 1
7 -8 3
7 -7 4
6 -7 5
6 -5 -7
7 -5 -6
7 -6 -5
7 -6 5
7 -5 6
6 -5 7
6 -3 -9
7 -3 -8
7 -4 -7
7 -4 7
7 -3 8
6 -3 9
6 -1 -9
7 -1 -8
7 -1 8
6 -1 9
6 1 -9
7 1 -8
7 1 8
6 1 9
6 3 -9
7 3 -8
7 3 8
6 3 9
6 5 -7
7 4 -7
7 5 -6
7 4 7
7 5 6
6 5 7
6 7 -5
7 6 -5
7 7 -4
7 6 5
7 7 4
6 7 5
6 9 -3
7 8 -3
6 9 -1
7 8 -1
6 9 1
7 8 1
6 9 3
7 8 3
8 -7 -3
8 -7 -1
8 -7 1
8 -7 3
8 -5 -5
9 -5 -4
9 -6 -3
9 -6 -1
9 -6 1
9 -6 3
9 -5 4
8 -5 5
8 -3 -7
9 -3 -6
9 -4 -5
9 -4 5
9 -3 6
8 -3 7
8 -1 -7
9 -1 -6
9 -1 6
8 -1 7
8 1 -7
9 1 -6
9 1 6
8 1 7
8 3 -7
9 3 -6
9 3 6
8 3 7
8 5 -5
9 4 -5
9 5 -4
9 4 5
9 5 4
8 5 5
8 7 -3
9 6 -3
8 7 -1
9 6 -1
8 7 1
9 6 1
8 7 3
9 6 3
10 -5 -3
10 -5 -1
10 -5 1
10 -5 3
10 -3 -5
10 -3 -3
10 -3 -1
10 -3 1
10 -3 3
10 -3 5
10 -1 -5
10 -1 -3
10 -1 -1
10 -1 1
10 -1 3
10 -1 5
10 1 -5
10 1 -3
10 1 -1
10 1 1
10 1 3
10 1 5
10 3 -5
10 3 -3
10 3 -1
10 3 1
10 3 3
10 3 5
10 5 -3
10 5 -1
10 5 1
10 5 3
3 0 1 2 200 200 200
3 0 3 4 255 255 0
3 1 0 4 255 255 0
3 3 5 6 255 255 0
3 4 3 6 255 255 0
3 5 7 8 255 255 0
3 6 5 8 255 255 0
3 7 9 8 200 200 200
3 10 11 12 200 200 200
3 11 1 13 255 0 0
3 10 2 1 200 200 200
3 10 1 11 200 200 200
3 4 14 1 255 0 0
3 14 13 1 255 0 0
3 6 15 4 255 0 0
3 15 14 4 255 0 0
3 8 16 6 255 0 0
3 16 15 6 255 0 0
3 8 17 16 255 0 0
3 9 18 17 200 200 200
3 9 17 8 200 200 200
3 18 19 17 200 200 200
3 11 20 21 255 0 255
3 12 11 21 255 0 255
3 13 22 11 255 0 0
3 22 20 11 255 0 0
3 14 23 13 255 0 0
3 23 22 13 255 0 0
3 15 24 14 255 0 0
3 24 23 14 255 0 0
3 16 25 15 255 0 0
3 25 24 15 255 0 0
3 17 26 16 255 0 0
3 26 25 16 255 0 0
3 19 27 26 255 0 255
3 17 19 26 255 0 255
3 20 28 29 255 0 255
3 21 20 29 255 0 255
3 22 30 20 255 0 0
3 30 28 20 255 0 0
3 23 31 22 255 0 0
3 31 30 22 255 0 0
3 24 32 23 255 0 0
3 32 31 23 255 0 0
3 25 33 24 255 0 0
3 33 32 24 255 0 0
3 26 34 25 255 0 0
3 34 33 25 255 0 0
3 27 35 34 255 0 255
3 26 27 34 255 0 255
3 28 36 37 255 0 255
3 29 28 37 255 0 255
3 30 38 28 255 0 0
3 38 36 28 255 0 0
3 31 39 30 255 0 0
3 39 38 30 255 0 0
3 32 40 31 255 0 0
3 40 39 31 255 0 0
3 33 41 32 255 0 0
3 41 40 32 255 0 0
3 34 42 33 255 0 0
3 42 41 33 255 0 0
3 35 43 42 255 0 255
3 34 35 42 255 0 255
3 36 44 37 200 200 200
3 45 36 38 255 0 0
3 46 44 36 200 200 200
3 46 36 45 200 200 200
3 39 47 38 255 0 0
3 47 45 38 255 0 0
3 40 48 39 255 0 0
3 48 47 39 255 0 0
3 41 49 40 255 0 0
3 49 48 40 255 0 0
3 42 49 41 255 0 0
3 50 51 49 200 200 200
3 50 49 42 200 200 200
3 43 50 42 200 200 200
3 45 52 46 200 200 200
3 53 52 45 255 255 0
3 47 53 45 255 255 0
3 54 53 47 255 255 0
3 48 54 47 255 255 0
3 55 54 48 255 255 0
3 49 55 48 255 255 0
3 51 55 49 200 200 200
3 56 57 58 200 200 200
3 56 59 60 255 255 0
3 57 56 60 255 255 0
3 59 61 62 255 255 0
3 60 59 62 255 255 0
3 61 63 64 255 255 0
3 62 61 64 255 255 0
3 63 65 64 200 200 200
3 66 67 68 200 200 200
3 66 2 67 200 200 200
3 58 2 66 200 200 200
3 58 0 2 200 200 200
3 58 57 0 200 200 200
3 60 0 57 255 255 0
3 3 0 60 255 255 0
3 62 3 60 255 255 0
3 5 3 62 255 255 0
3 64 5 62 255 255 0
3 7 5 64 255 255 0
3 69 9 7 200 200 200
3 70 69 7 200 200 200
3 70 7 64 200 200 200
3 70 64 65 200 200 200
3 70 71 69 200 200 200
3 72 73 74 200 200 200
3 72 12 73 200 200 200
3 68 12 72 200 200 200
3 68 10 12 200 200 200
3 68 67 10 200 200 200
3 2 10 67 200 200 200
3 69 18 9 200 200 200
3 75 19 18 200 200 200
3 76 75 18 200 200 200
3 76 18 69 200 200 200
3 76 69 71 200 200 200
3 76 77 75 200 200 200
3 73 78 79 255 0 255
3 74 73 79 255 0 255
3 21 73 12 255 0 255
3 78 73 21 255 0 255
3 80 19 75 255 0 255
3 27 19 80 255 0 255
3 77 81 80 255 0 255
3 75 77 80 255 0 255
3 78 82 83 255 0 255
3 79 78 83 255 0 255
3 29 78 21 255 0 255
3 82 78 29 255 0 255
3 84 27 80 255 0 255
3 35 27 84 255 0 255
3 81 85 84 255 0 255
3 80 81 84 255 0 255
3 82 86 87 255 0 255
3 83 82 87 255 0 255
3 37 82 29 255 0 255
3 86 82 37 255 0 255
3 88 35 84 255 0 255
3 43 35 88 255 0 255
3 85 89 88 255 0 255
3 84 85 88 255 0 255
3 86 90 87 200 200 200
3 86 91 90 200 200 200
3 37 91 86 200 200 200
3 37 92 91 200 200 200
3 37 44 92 200 200 200
3 46 92 44 200 200 200
3 93 51 50 200 200 200
3 43 93 50 200 200 200
3 88 93 43 200 200 200
3 88 94 93 200 200 200
3 88 95 94 200 200 200
3 89 95 88 200 200 200
3 92 96 91 200 200 200
3 92 97 96 200 200 200
3 46 97 92 200 200 200
3 46 98 97 200 200 200
3 46 52 98 200 200 200
3 98 53 99 255 255 0
3 52 53 98 255 255 0
3 99 54 100 255 255 0
3 53 54 99 255 255 0
3 100 55 101 255 255 0
3 54 55 100 255 255 0
3 51 101 55 200 200 200
3 93 101 51 200 200 200
3 93 102 101 200 200 200
3 93 103 102 200 200 200
3 94 103 93 200 200 200
3 98 104 97 200 200 200
3 105 104 98 255 255 0
3 99 105 98 255 255 0
3 106 105 99 255 255 0
3 100 106 99 255 255 0
3 107 106 100 255 255 0
3 101 107 100 255 255 0
3 102 107 101 200 200 200
3 108 109 110 200 200 200
3 108 111 112 255 255 0
3 109 108 112 255 255 0
3 111 113 114 255 255 0
3 112 111 114 255 255 0
3 113 115 116 255 255 0
3 114 113 116 255 255 0
3 115 117 116 200 200 200
3 118 119 120 200 200 200
3 118 58 119 200 200 200
3 110 58 118 200 200 200
3 110 56 58 200 200 200
3 110 109 56 200 200 200
3 112 56 109 255 255 0
3 59 56 112 255 255 0
3 114 59 112 255 255 0
3 61 59 114 255 255 0
3 116 61 114 255 255 0
3 63 61 116 255 255 0
3 121 65 63 200 200 200
3 122 121 63 200 200 200
3 122 63 116 200 200 200
3 122 116 117 200 200 200
3 122 123 121 200 200 200
3 124 125 126 200 200 200
3 124 68 125 200 200 200
3 120 68 124 200 200 200
3 120 66 68 200 200 200
3 120 119 66 200 200 200
3 58 66 119 200 200 200
3 121 70 65 200 200 200
3 127 71 70 200 200 200
3 128 127 70 200 200 200
3 128 70 121 200 200 200
3 128 121 123 200 200 200
3 128 129 127 200 200 200
3 130 131 132 200 200 200
3 130 74 131 200 200 200
3 126 74 130 200 200 200
3 126 72 74 200 200 200
3 126 125 72 200 200 200
3 68 72 125 200 200 200
3 127 76 71 200 200 200
3 133 77 76 200 200 200
3 134 133 76 200 200 200
3 134 76 127 200 200 200
3 134 127 129 200 200 200
3 134 135 133 200 200 200
3 131 136 137 255 0 255
3 132 131 137 255 0 255
3 79 131 74 255 0 255
3 136 131 79 255 0 255
3 138 77 133 255 0 255
3 81 77 138 255 0 255
3 135 139 138 255 0 255
3 133 135 138 255 0 255
3 136 140 141 255 0 255
3 137 136 141 255 0 255
3 83 136 79 255 0 255
3 140 136 83 255 0 255
3 142 81 138 255 0 255
3 85 81 142 255 0 255
3 139 143 142 255 0 255
3 138 139 142 255 0 255
3 140 144 145 255 0 255
3 141 140 145 255 0 255
3 87 140 83 255 0 255
3 144 140 87 255 0 255
3 146 85 142 255 0 255
3 89 85 146 255 0 255
3 143 147 146 255 0 255
3 142 143 146 255 0 255
3 144 148 145 200 200 200
3 144 149 148 200 200 200
3 87 149 144 200 200 200
3 87 150 149 200 200 200
3 87 90 150 200 200 200
3 91 150 90 200 200 200
3 151 94 95 200 200 200
3 89 151 95 200 200 200
3 146 151 89 200 200 200
3 146 152 151 200 200 200
3 146 153 152 200 200 200
3 147 153 146 200 200 200
3 150 154 149 200 200 200
3 150 155 154 200 200 200
3 91 155 150 200 200 200
3 91 156 155 200 200 200
3 91 96 156 200 200 200
3 97 156 96 200 200 200
3 157 102 103 200 200 200
3 94 157 103 200 200 200
3 151 157 94 200 200 200
3 151 158 157 200 200 200
3 151 159 158 200 200 200
3 152 159 151 200 200 200
3 156 160 155 200 200 200
3 156 161 160 200 200 200
3 97 161 156 200 200 200
3 97 162 161 200 200 200
3 97 104 162 200 200 200
3 162 105 163 255 255 0
3 104 105 162 255 255 0
3 163 106 164 255 255 0
3 105 106 163 255 255 0
3 164 107 165 255 255 0
3 106 107 164 255 255 0
3 102 165 107 200 200 200
3 157 165 102 200 200 200
3 157 166 165 200 200 200
3 157 167 166 200 200 200
3 158 167 157 200 200 200
3 162 168 161 200 200 200
3 169 168 162 255 255 0
3 163 169 162 255 255 0
3 170 169 163 255 255 0
3 164 170 163 255 255 0
3 171 170 164 255 255 0
3 165 171 164 255 255 0
3 166 171 165 200 200 200
3 172 173 174 200 200 200
3 108 172 175 0 255 0
3 110 173 172 200 200 200
3 110 172 108 200 200 200
3 176 111 175 0 255 0
3 175 111 108 0 255 0
3 177 113 176 0 255 0
3 176 113 111 0 255 0
3 178 115 177 0 255 0
3 177 115 113 0 255 0
3 179 115 178 0 255 0
3 180 117 115 200 200 200
3 180 115 179 200 200 200
3 179 181 180 200 200 200
3 182 183 184 200 200 200
3 182 120 183 200 200 200
3 174 120 182 200 200 200
3 174 118 120 200 200 200
3 174 173 118 200 200 200
3 110 118 173 200 200 200
3 180 122 117 200 200 200
3 185 123 122 200 200 200
3 186 185 122 200 200 200
3 186 122 180 200 200 200
3 186 180 181 200 200 200
3 186 187 185 200 200 200
3 188 189 190 200 200 200
3 188 126 189 200 200 200
3 184 126 188 200 200 200
3 184 124 126 200 200 200
3 184 183 124 200 200 200
3 120 124 183 200 200 200
3 185 128 123 200 200 200
3 191 129 128 200 200 200
3 192 191 128 200 200 200
3 192 128 185 200 200 200
3 192 185 187 200 200 200
3 192 193 191 200 200 200
3 190 132 194 0 0 255
3 189 130 132 200 200 200
3 189 132 190 200 200 200
3 126 130 189 200 200 200
3 191 134 129 200 200 200
3 135 193 195 0 0 255
3 134 191 193 200 200 200
3 134 193 135 200 200 200
3 194 132 196 0 0 255
3 132 137 196 0 0 255
3 195 197 135 0 0 255
3 135 197 139 0 0 255
3 196 137 198 0 0 255
3 137 141 198 0 0 255
3 197 199 139 0 0 255
3 139 199 143 0 0 255
3 198 141 200 0 0 255
3 141 145 200 0 0 255
3 199 201 143 0 0 255
3 143 201 147 0 0 255
3 145 202 200 0 0 255
3 148 203 202 200 200 200
3 148 202 145 200 200 200
3 149 203 148 200 200 200
3 204 152 153 200 200 200
3 205 147 201 0 0 255
3 204 153 147 200 200 200
3 204 147 205 200 200 200
3 203 206 202 200 200 200
3 203 207 206 200 200 200
3 149 207 203 200 200 200
3 149 208 207 200 200 200
3 149 154 208 200 200 200
3 155 208 154 200 200 200
3 209 158 159 200 200 200
3 152 209 159 200 200 200
3 204 209 152 200 200 200
3 204 210 209 200 200 200
3 204 211 210 200 200 200
3 205 211 204 200 200 200
3 208 212 207 200 200 200
3 208 213 212 200 200 200
3 155 213 208 200 200 200
3 155 214 213 200 200 200
3 155 160 214 200 200 200
3 161 214 160 200 200 200
3 215 166 167 200 200 200
3 158 215 167 200 200 200
3 209 215 158 200 200 200
3 209 216 215 200 200 200
3 209 217 216 200 200 200
3 210 217 209 200 200 200
3 214 218 213 200 200 200
3 218 168 219 0 255 0
3 214 161 168 200 200 200
3 214 168 218 200 200 200
3 220 219 169 0 255 0
3 219 168 169 0 255 0
3 221 220 170 0 255 0
3 220 169 170 0 255 0
3 222 221 171 0 255 0
3 221 170 171 0 255 0
3 171 223 222 0 255 0
3 166 215 223 200 200 200
3 166 223 171 200 200 200
3 216 223 215 200 200 200
3 224 172 174 0 255 255
3 225 224 174 0 255 255
3 226 175 224 0 255 0
3 224 175 172 0 255 0
3 227 176 226 0 255 0
3 226 176 175 0 255 0
3 228 177 227 0 255 0
3 227 177 176 0 255 0
3 229 178 228 0 255 0
3 228 178 177 0 255 0
3 230 179 229 0 255 0
3 229 179 178 0 255 0
3 179 230 231 0 255 255
3 181 179 231 0 255 255
3 232 182 184 0 255 255
3 233 232 184 0 255 255
3 174 232 225 0 255 255
3 182 232 174 0 255 255
3 231 186 181 0 255 255
3 234 186 231 0 255 255
3 186 234 235 0 255 255
3 187 186 235 0 255 255
3 236 188 190 0 255 255
3 237 236 190 0 255 255
3 184 236 233 0 255 255
3 188 236 184 0 255 255
3 235 192 187 0 255 255
3 238 192 235 0 255 255
3 192 238 239 0 255 255
3 193 192 239 0 255 255
3 237 190 240 0 0 255
3 190 194 240 0 0 255
3 239 241 193 0 0 255
3 193 241 195 0 0 255
3 240 194 242 0 0 255
3 194 196 242 0 0 255
3 241 243 195 0 0 255
3 195 243 197 0 0 255
3 242 196 244 0 0 255
3 196 198 244 0 0 255
3 243 245 197 0 0 255
3 197 245 199 0 0 255
3 244 198 246 0 0 255
3 198 200 246 0 0 255
3 245 247 199 0 0 255
3 199 247 201 0 0 255
3 246 200 248 0 0 255
3 200 202 248 0 0 255
3 247 249 201 0 0 255
3 201 249 205 0 0 255
3 248 202 206 0 255 255
3 250 248 206 0 255 255
3 206 251 250 0 255 255
3 207 251 206 0 255 255
3 252 210 211 0 255 255
3 253 210 252 0 255 255
3 205 249 252 0 255 255
3 211 205 252 0 255 255
3 251 207 212 0 255 255
3 254 251 212 0 255 255
3 212 255 254 0 255 255
3 213 255 212 0 255 255
3 256 216 217 0 255 255
3 257 216 256 0 255 255
3 210 253 256 0 255 255
3 217 210 256 0 255 255
3 255 213 218 0 255 255
3 258 255 218 0 255 255
3 259 258 219 0 255 0
3 258 218 219 0 255 0
3 260 259 220 0 255 0
3 259 219 220 0 255 0
3 261 260 221 0 255 0
3 260 220 221 0 255 0
3 262 261 222 0 255 0
3 261 221 222 0 255 0
3 263 262 223 0 255 0
3 262 222 223 0 255 0
3 216 257 263 0 255 255
3 223 216 263 0 255 255
3 264 224 225 0 255 255
3 265 264 225 0 255 255
3 266 226 264 0 255 0
3 264 226 224 0 255 0
3 267 227 266 0 255 0
3 266 227 226 0 255 0
3 268 228 267 0 255 0
3 267 228 227 0 255 0
3 269 229 268 0 255 0
3 268 229 228 0 255 0
3 270 230 269 0 255 0
3 269 230 229 0 255 0
3 230 270 271 0 255 255
3 231 230 271 0 255 255
3 272 232 233 0 255 255
3 273 272 233 0 255 255
3 225 272 265 0 255 255
3 232 272 225 0 255 255
3 271 234 231 0 255 255
3 274 234 271 0 255 255
3 234 274 275 0 255 255
3 235 234 275 0 255 255
3 276 236 237 0 255 255
3 277 276 237 0 255 255
3 233 276 273 0 255 255
3 236 276 233 0 255 255
3 275 238 235 0 255 255
3 278 238 275 0 255 255
3 238 278 279 0 255 255
3 239 238 279 0 255 255
3 277 237 280 0 0 255
3 237 240 280 0 0 255
3 279 281 239 0 0 255
3 239 281 241 0 0 255
3 280 240 282 0 0 255
3 240 242 282 0 0 255
3 281 283 241 0 0 255
3 241 283 243 0 0 255
3 282 242 284 0 0 255
3 242 244 284 0 0 255
3 283 285 243 0 0 255
3 243 285 245 0 0 255
3 284 244 286 0 0 255
3 244 246 286 0 0 255
3 285 287 245 0 0 255
3 245 287 247 0 0 255
3 286 246 288 0 0 255
3 246 248 288 0 0 255
3 287 289 247 0 0 255
3 247 289 249 0 0 255
3 288 248 250 0 255 255
3 290 288 250 0 255 255
3 250 291 290 0 255 255
3 251 291 250 0 255 255
3 292 253 252 0 255 255
3 293 253 292 0 255 255
3 249 289 292 0 255 255
3 252 249 292 0 255 255
3 291 251 254 0 255 255
3 294 291 254 0 255 255
3 254 295 294 0 255 255
3 255 295 254 0 255 255
3 296 257 256 0 255 255
3 297 257 296 0 255 255
3 253 293 296 0 255 255
3 256 253 296 0 255 255
3 295 255 258 0 255 255
3 298 295 258 0 255 255
3 299 298 259 0 255 0
3 298 258 259 0 255 0
3 300 299 260 0 255 0
3 299 259 260 0 255 0
3 301 300 261 0 255 0
3 300 260 261 0 255 0
3 302 301 262 0 255 0
3 301 261 262 0 255 0
3 303 302 263 0 255 0
3 302 262 263 0 255 0
3 257 297 303 0 255 255
3 263 257 303 0 255 255
3 304 264 265 0 255 255
3 305 304 265 0 255 255
3 306 266 304 0 255 0
3 304 266 264 0 255 0
3 307 267 306 0 255 0
3 306 267 266 0 255 0
3 308 268 307 0 255 0
3 307 268 267 0 255 0
3 309 269 308 0 255 0
3 308 269 268 0 255 0
3 310 270 309 0 255 0
3 309 270 269 0 255 0
3 270 310 311 0 255 255
3 271 270 311 0 255 255
3 312 272 273 0 255 255
3 313 312 273 0 255 255
3 265 312 305 0 255 255
3 272 312 265 0 255 255
3 311 274 271 0 255 255
3 314 274 311 0 255 255
3 274 314 315 0 255 255
3 275 274 315 0 255 255
3 316 276 277 0 255 255
3 317 316 277 0 255 255
3 273 316 313 0 255 255
3 276 316 273 0 255 255
3 315 278 275 0 255 255
3 318 278 315 0 255 255
3 278 318 319 0 255 255
3 279 278 319 0 255 255
3 317 277 320 0 0 255
3 277 280 320 0 0 255
3 319 321 279 0 0 255
3 279 321 281 0 0 255
3 320 280 322 0 0 255
3 280 282 322 0 0 255
3 321 323 281 0 0 255
3 281 323 283 0 0 255
3 322 282 324 0 0 255
3 282 284 324 0 0 255
3 323 325 283 0 0 255
3 283 325 285 0 0 255
3 324 284 326 0 0 255
3 284 286 326 0 0 255
3 325 327 285 0 0 255
3 285 327 287 0 0 255
3 326 286 328 0 0 255
3 286 288 328 0 0 255
3 327 329 287 0 0 255
3 287 329 289 0 0 255
3 328 288 290 0 255 255
3 330 328 290 0 255 255
3 290 331 330 0 255 255
3 291 331 290 0 255 255
3 332 293 292 0 255 255
3 333 293 332 0 255 255
3 289 329 332 0 255 255
3 292 289 332 0 255 255
3 331 291 294 0 255 255
3 334 331 294 0 255 255
3 294 335 334 0 255 255
3 295 335 294 0 255 255
3 336 297 296 0 255 255
3 337 297 336 0 255 255
3 293 333 336 0 255 255
3 296 293 336 0 255 255
3 335 295 298 0 255 255
3 338 335 298 0 255 255
3 339 338 299 0 255 0
3 338 298 299 0 255 0
3 340 339 300 0 255 0
3 339 299 300 0 255 0
3 341 340 301 0 255 0
3 340 300 301 0 255 0
3 342 341 302 0 255 0
3 341 301 302 0 255 0
3 343 342 303 0 255 0
3 342 302 303 0 255 0
3 297 337 343 0 255 255
3 303 297 343 0 255 255
3 344 304 305 200 200 200
3 304 345 306 0 255 0
3 344 346 345 200 200 200
3 344 345 304 200 200 200
3 347 307 345 0 255 0
3 345 307 306 0 255 0
3 348 308 347 0 255 0
3 347 308 307 0 255 0
3 349 309 348 0 255 0
3 348 309 308 0 255 0
3 349 310 309 0 255 0
3 350 351 310 200 200 200
3 350 310 349 200 200 200
3 311 310 351 200 200 200
3 352 312 313 200 200 200
3 305 312 352 200 200 200
3 344 305 352 200 200 200
3 344 352 353 200 200 200
3 344 353 354 200 200 200
3 346 344 354 200 200 200
3 351 350 355 200 200 200
3 351 355 356 200 200 200
3 311 351 356 200 200 200
3 311 356 357 200 200 200
3 311 357 314 200 200 200
3 315 314 357 200 200 200
3 358 316 317 200 200 200
3 313 316 358 200 200 200
3 352 313 358 200 200 200
3 352 358 359 200 200 200
3 352 359 360 200 200 200
3 353 352 360 200 200 200
3 357 356 361 200 200 200
3 357 361 362 200 200 200
3 315 357 362 200 200 200
3 315 362 363 200 200 200
3 315 363 318 200 200 200
3 319 318 363 200 200 200
3 364 317 320 0 0 255
3 365 358 317 200 200 200
3 365 317 364 200 200 200
3 359 358 365 200 200 200
3 363 362 366 200 200 200
3 319 367 321 0 0 255
3 363 366 367 200 200 200
3 363 367 319 200 200 200
3 364 320 368 0 0 255
3 320 322 368 0 0 255
3 367 369 321 0 0 255
3 321 369 323 0 0 255
3 368 322 370 0 0 255
3 322 324 370 0 0 255
3 369 371 323 0 0 255
3 323 371 325 0 0 255
3 370 324 372 0 0 255
3 324 326 372 0 0 255
3 371 373 325 0 0 255
3 325 373 327 0 0 255
3 328 372 326 0 0 255
3 374 375 372 200 200 200
3 374 372 328 200 200 200
3 375 374 376 200 200 200
3 377 378 379 200 200 200
3 373 329 327 0 0 255
3 377 379 329 200 200 200
3 377 329 373 200 200 200
3 374 328 330 200 200 200
3 380 330 331 200 200 200
3 381 330 380 200 200 200
3 381 374 330 200 200 200
3 381 376 374 200 200 200
3 381 380 382 200 200 200
3 383 384 385 200 200 200
3 383 385 333 200 200 200
3 378 383 333 200 200 200
3 378 333 332 200 200 200
3 378 332 379 200 200 200
3 329 379 332 200 200 200
3 380 331 334 200 200 200
3 386 334 335 200 200 200
3 387 334 386 200 200 200
3 387 380 334 200 200 200
3 387 382 380 200 200 200
3 387 386 388 200 200 200
3 389 390 391 200 200 200
3 389 391 337 200 200 200
3 384 389 337 200 200 200
3 384 337 336 200 200 200
3 384 336 385 200 200 200
3 333 385 336 200 200 200
3 386 335 338 200 200 200
3 392 338 339 0 255 0
3 388 386 338 200 200 200
3 388 338 392 200 200 200
3 393 392 340 0 255 0
3 392 339 340 0 255 0
3 394 393 341 0 255 0
3 393 340 341 0 255 0
3 395 394 342 0 255 0
3 394 341 342 0 255 0
3 343 395 342 0 255 0
3 391 390 395 200 200 200
3 391 395 343 200 200 200
3 337 391 343 200 200 200
3 396 345 346 200 200 200
3 396 397 347 255 255 0
3 345 396 347 255 255 0
3 397 398 348 255 255 0
3 347 397 348 255 255 0
3 398 399 349 255 255 0
3 348 398 349 255 255 0
3 350 349 399 200 200 200
3 400 354 353 200 200 200
3 346 354 400 200 200 200
3 396 346 400 200 200 200
3 396 400 401 200 200 200
3 396 401 402 200 200 200
3 403 396 402 255 255 0
3 397 396 403 255 255 0
3 404 397 403 255 255 0
3 398 397 404 255 255 0
3 405 398 404 255 255 0
3 399 398 405 255 255 0
3 399 405 406 200 200 200
3 350 399 406 200 200 200
3 350 406 407 200 200 200
3 350 407 355 200 200 200
3 356 355 407 200 200 200
3 408 360 359 200 200 200
3 353 360 408 200 200 200
3 400 353 408 200 200 200
3 400 408 409 200 200 200
3 400 409 410 200 200 200
3 401 400 410 200 200 200
3 407 406 411 200 200 200
3 407 411 412 200 200 200
3 356 407 412 200 200 200
3 356 412 413 200 200 200
3 356 413 361 200 200 200
3 362 361 413 200 200 200
3 414 365 364 200 200 200
3 359 365 414 200 200 200
3 408 359 414 200 200 200
3 408 414 415 200 200 200
3 408 415 416 200 200 200
3 409 408 416 200 200 200
3 413 412 417 200 200 200
3 413 417 418 200 200 200
3 362 413 418 200 200 200
3 362 418 419 200 200 200
3 362 419 366 200 200 200
3 367 366 419 200 200 200
3 420 414 364 255 0 255
3 368 420 364 255 0 255
3 415 420 421 255 0 255
3 414 420 415 255 0 255
3 419 422 423 255 0 255
3 418 422 419 255 0 255
3 369 367 419 255 0 255
3 423 369 419 255 0 255
3 424 420 368 255 0 255
3 370 424 368 255 0 255
3 421 424 425 255 0 255
3 420 424 421 255 0 255
3 423 426 427 255 0 255
3 422 426 423 255 0 255
3 371 369 423 255 0 255
3 427 371 423 255 0 255
3 428 424 370 255 0 255
3 372 428 370 255 0 255
3 425 428 429 255 0 255
3 424 428 425 255 0 255
3 427 430 431 255 0 255
3 426 430 427 255 0 255
3 373 371 427 255 0 255
3 431 373 427 255 0 255
3 428 372 375 200 200 200
3 432 375 376 200 200 200
3 433 375 432 200 200 200
3 433 428 375 200 200 200
3 433 429 428 200 200 200
3 433 432 434 200 200 200
3 435 436 437 200 200 200
3 435 437 378 200 200 200
3 430 435 378 200 200 200
3 430 378 377 200 200 200
3 430 377 431 200 200 200
3 373 431 377 200 200 200
3 432 376 381 200 200 200
3 438 381 382 200 200 200
3 439 381 438 200 200 200
3 439 432 381 200 200 200
3 439 434 432 200 200 200
3 439 438 440 200 200 200
3 441 442 443 200 200 200
3 441 443 384 200 200 200
3 436 441 384 200 200 200
3 436 384 383 200 200 200
3 436 383 437 200 200 200
3 378 437 383 200 200 200
3 438 382 387 200 200 200
3 444 387 388 200 200 200
3 445 387 444 200 200 200
3 445 438 387 200 200 200
3 445 440 438 200 200 200
3 445 446 447 255 255 0
3 444 446 445 255 255 0
3 447 448 449 255 255 0
3 446 448 447 255 255 0
3 449 450 451 255 255 0
3 448 450 449 255 255 0
3 451 450 390 200 200 200
3 442 451 390 200 200 200
3 442 390 389 200 200 200
3 442 389 443 200 200 200
3 384 443 389 200 200 200
3 444 388 392 200 200 200
3 446 444 392 255 255 0
3 393 446 392 255 255 0
3 448 446 393 255 255 0
3 394 448 393 255 255 0
3 450 448 394 255 255 0
3 395 450 394 255 255 0
3 390 450 395 200 200 200
3 452 402 401 200 200 200
3 452 453 403 255 255 0
3 402 452 403 255 255 0
3 453 454 404 255 255 0
3 403 453 404 255 255 0
3 454 455 405 255 255 0
3 404 454 405 255 255 0
3 406 405 455 200 200 200
3 456 410 409 200 200 200
3 401 410 456 200 200 200
3 452 401 456 200 200 200
3 452 456 457 200 200 200
3 452 457 458 200 200 200
3 459 452 458 255 255 0
3 453 452 459 255 255 0
3 460 453 459 255 255 0
3 454 453 460 255 255 0
3 461 454 460 255 255 0
3 455 454 461 255 255 0
3 455 461 462 200 200 200
3 406 455 462 200 200 200
3 406 462 463 200 200 200
3 406 463 411 200 200 200
3 412 411 463 200 200 200
3 464 416 415 200 200 200
3 409 416 464 200 200 200
3 456 409 464 200 200 200
3 456 464 465 200 200 200
3 456 465 466 200 200 200
3 457 456 466 200 200 200
3 463 462 467 200 200 200
3 463 467 468 200 200 200
3 412 463 468 200 200 200
3 412 468 469 200 200 200
3 412 469 417 200 200 200
3 418 417 469 200 200 200
3 470 464 415 255 0 255
3 421 470 415 255 0 255
3 465 470 471 255 0 255
3 464 470 465 255 0 255
3 469 472 473 255 0 255
3 468 472 469 255 0 255
3 422 418 469 255 0 255
3 473 422 469 255 0 255
3 474 470 421 255 0 255
3 425 474 421 255 0 255
3 471 474 475 255 0 255
3 470 474 471 255 0 255
3 473 476 477 255 0 255
3 472 476 473 255 0 255
3 426 422 473 255 0 255
3 477 426 473 255 0 255
3 478 474 425 255 0 255
3 429 478 425 255 0 255
3 475 478 479 255 0 255
3 474 478 475 255 0 255
3 477 480 481 255 0 255
3 476 480 477 255 0 255
3 430 426 477 255 0 255
3 481 430 477 255 0 255
3 478 429 433 200 200 200
3 482 433 434 200 200 200
3 483 433 482 200 200 200
3 483 478 433 200 200 200
3 483 479 478 200 200 200
3 483 482 484 200 200 200
3 485 486 487 200 200 200
3 485 487 436 200 200 200
3 480 485 436 200 200 200
3 480 436 435 200 200 200
3 480 435 481 200 200 200
3 430 481 435 200 200 200
3 482 434 439 200 200 200
3 488 439 440 200 200 200
3 489 439 488 200 200 200
3 489 482 439 200 200 200
3 489 484 482 200 200 200
3 489 490 491 255 255 0
3 488 490 489 255 255 0
3 491 492 493 255 255 0
3 490 492 491 255 255 0
3 493 494 495 255 255 0
3 492 494 493 255 255 0
3 495 494 442 200 200 200
3 486 495 442 200 200 200
3 486 442 441 200 200 200
3 486 441 487 200 200 200
3 436 487 441 200 200 200
3 488 440 445 200 200 200
3 490 488 445 255 255 0
3 447 490 445 255 255 0
3 492 490 447 255 255 0
3 449 492 447 255 255 0
3 494 492 449 255 255 0
3 451 494 449 255 255 0
3 442 494 451 200 200 200
3 496 458 457 200 200 200
3 496 497 459 255 255 0
3 458 496 459 255 255 0
3 497 498 460 255 255 0
3 459 497 460 255 255 0
3 498 499 461 255 255 0
3 460 498 461 255 255 0
3 462 461 499 200 200 200
3 500 466 465 200 200 200
3 496 500 501 255 0 0
3 457 466 500 200 200 200
3 457 500 496 200 200 200
3 497 496 502 255 0 0
3 502 496 501 255 0 0
3 498 497 503 255 0 0
3 503 497 502 255 0 0
3 499 498 504 255 0 0
3 504 498 503 255 0 0
3 505 499 504 255 0 0
3 467 462 499 200 200 200
3 467 499 505 200 200 200
3 468 467 505 200 200 200
3 506 500 465 255 0 255
3 471 506 465 255 0 255
3 501 500 507 255 0 0
3 507 500 506 255 0 0
3 502 501 508 255 0 0
3 508 501 507 255 0 0
3 503 502 509 255 0 0
3 509 502 508 255 0 0
3 504 503 510 255 0 0
3 510 503 509 255 0 0
3 505 504 511 255 0 0
3 511 504 510 255 0 0
3 472 468 505 255 0 255
3 511 472 505 255 0 255
3 512 506 471 255 0 255
3 475 512 471 255 0 255
3 507 506 513 255 0 0
3 513 506 512 255 0 0
3 508 507 514 255 0 0
3 514 507 513 255 0 0
3 509 508 515 255 0 0
3 515 508 514 255 0 0
3 510 509 516 255 0 0
3 516 509 515 255 0 0
3 511 510 517 255 0 0
3 517 510 516 255 0 0
3 476 472 511 255 0 255
3 517 476 511 255 0 255
3 518 512 475 255 0 255
3 479 518 475 255 0 255
3 513 512 519 255 0 0
3 519 512 518 255 0 0
3 514 513 520 255 0 0
3 520 513 519 255 0 0
3 515 514 521 255 0 0
3 521 514 520 255 0 0
3 516 515 522 255 0 0
3 522 515 521 255 0 0
3 517 516 523 255 0 0
3 523 516 522 255 0 0
3 480 476 517 255 0 255
3 523 480 517 255 0 255
3 518 479 483 200 200 200
3 518 524 519 255 0 0
3 483 484 524 200 200 200
3 483 524 518 200 200 200
3 520 519 525 255 0 0
3 525 519 524 255 0 0
3 521 520 526 255 0 0
3 526 520 525 255 0 0
3 522 521 527 255 0 0
3 527 521 526 255 0 0
3 527 523 522 255 0 0
3 486 485 523 200 200 200
3 486 523 527 200 200 200
3 480 523 485 200 200 200
3 524 484 489 200 200 200
3 525 524 489 255 255 0
3 491 525 489 255 255 0
3 526 525 491 255 255 0
3 493 526 491 255 255 0
3 527 526 493 255 255 0
3 495 527 493 255 255 0
3 486 527 495 200 200 200
